<?xml version="1.0" encoding="UTF-8"?>
<!-- Generated by Pixelmator Pro 3.7 -->
<svg width="479" height="182" viewBox="0 0 479 182" xmlns="http://www.w3.org/2000/svg">
    <g id="Group">
        <path id="Path-copy-14" fill="#081116" stroke="none" d="M 27.502501 60.75872 L 27.502501 60.75872 L 27.502501 0.427536 L 13.404891 0.427536 L 1 0.427536 L 1 1.177307 C 7.850951 1.177307 13.404891 6.730637 13.404891 13.581573 L 13.404891 60.75872 C 13.404891 67.609665 7.850951 73.162987 1 73.162987 L 1 73.912773 L 13.404891 73.912773 L 27.502501 73.912773 L 39.907429 73.912773 L 39.907429 73.162987 C 33.056442 73.162987 27.502501 67.609665 27.502501 60.75872"/>
        <path id="Path-copy-13" fill="#081116" stroke="none" d="M 59.456158 0.430878 C 59.321377 0.42778 59.249931 0.42778 59.249931 0.42778 L 27.502829 0.42778 L 27.502829 1.17691 C 27.440081 1.198059 32.867287 1.201767 39.251152 1.198669 C 50.29319 1.19368 59.249931 10.143616 59.249931 21.185654 L 59.249931 21.185654 C 59.249931 32.227692 50.29319 41.177597 39.251152 41.172653 C 32.867287 41.16951 27.440081 41.173264 27.502829 41.194382 L 27.502829 41.943542 L 59.249931 41.943542 C 59.249931 41.943542 59.321377 41.943542 59.456158 41.940399 C 68.624107 41.735413 75.933479 34.207993 75.933479 25.038177 L 75.933479 17.329391 C 75.933479 8.159576 68.623489 0.634003 59.456158 0.430878"/>
        <path id="Path-copy-12" fill="#081116" stroke="none" d="M 182.201035 73.912621 L 194.605927 73.912621 L 194.605927 73.16288 C 187.754974 73.16288 182.201035 67.609558 182.201035 60.758606 L 182.201035 13.581436 C 182.201035 6.73111 187.754974 1.17717 194.605927 1.17717 L 194.605927 0.42804 L 182.201035 0.42804 L 168.103424 0.42804 L 155.699142 0.42804 L 155.699142 1.17717 C 162.549484 1.17717 168.103424 6.73111 168.103424 13.581436 L 168.103424 13.581436 L 168.103424 60.758606 L 168.103424 60.758606 C 168.103424 67.609558 162.549484 73.16288 155.699142 73.16288 L 155.699142 73.912621 L 168.103424 73.912621 Z"/>
        <path id="Path-copy-11" fill="#081116" stroke="none" d="M 223.996063 73.912621 L 223.996063 73.912003 L 224.004135 73.912003 L 265.081329 12.147797 C 269.625214 6.18074 278.405579 1.17717 284.753387 1.17717 L 284.753387 0.42804 L 272.875854 0.42804 L 272.34845 0.42804 L 271.880096 0.42804 L 271.878876 0.42804 L 259.475159 0.42804 L 259.475159 1.17717 C 265.242798 1.17717 267.160431 5.307358 265.157135 10.537689 L 223.996063 72.440437 L 223.996063 13.581436 L 223.996063 13.581436 C 223.996063 6.73111 229.550003 1.17717 236.400955 1.17717 L 236.400955 0.42804 L 223.996063 0.42804 L 209.898453 0.42804 L 197.493515 0.42804 L 197.493515 1.17717 C 204.344513 1.17717 209.898453 6.73111 209.898453 13.581436 L 209.898453 60.758606 C 209.898453 67.609558 204.344513 73.16288 197.493515 73.16288 L 197.493515 73.912621 L 209.898453 73.912621 Z"/>
        <path id="Path-copy-10" fill="#081116" stroke="none" d="M 343.716949 1.177048 L 347.283142 1.177048 C 354.134094 1.177048 359.687408 6.730988 359.687408 13.58194 L 359.687408 60.758461 C 359.687408 67.609413 354.134094 73.163391 347.283142 73.163391 L 347.283142 73.912514 L 359.687408 73.912514 L 373.785034 73.912514 L 386.189941 73.912514 L 386.189941 73.163391 C 379.338989 73.163391 373.785034 67.609413 373.785034 60.758461 L 373.785034 13.58194 C 373.785034 6.730988 379.338989 1.177048 386.189941 1.177048 L 389.756134 1.177048 C 396.607086 1.177048 402.1604 6.730988 402.1604 13.58194 L 402.910187 13.58194 L 402.910187 1.177048 L 402.910187 0.427887 L 386.189941 0.427887 L 373.785034 0.427887 L 359.687408 0.427887 L 347.283142 0.427887 L 330.562897 0.427887 L 330.562897 1.177048 L 330.562897 13.58194 L 331.312103 13.58194 C 331.312103 6.730988 336.865997 1.177048 343.716949 1.177048"/>
        <path id="Path-copy-9" fill="#081116" stroke="none" d="M 298.34494 1.899796 L 298.34494 41.194199 L 272.217651 41.194199 Z M 237.587646 73.163063 L 237.587646 73.912804 L 249.465179 73.912804 L 249.992569 73.912804 L 250.460922 73.912804 L 250.462158 73.912804 L 262.865204 73.912804 L 262.865204 73.163063 C 258.059753 73.163063 255.926682 70.295082 256.508667 66.312729 C 256.711182 64.928116 257.300079 63.628632 258.074677 62.463921 L 271.718872 41.943314 L 298.34494 41.943314 L 298.34494 60.758789 C 298.34494 67.609741 292.791016 73.163063 285.940063 73.163063 L 285.940063 73.912804 L 298.34494 73.912804 L 312.442535 73.912804 L 324.847473 73.912804 L 324.847473 73.163063 C 317.99585 73.163063 312.442535 67.609741 312.442535 60.758789 L 312.442535 13.58165 C 312.442535 6.730667 317.99585 1.176727 324.847473 1.176727 L 324.847473 0.427597 L 312.442535 0.427597 L 298.34494 0.427597 L 298.34494 0.428223 L 298.336914 0.428223 L 257.260345 62.192474 C 252.71579 68.158867 243.93544 73.163063 237.587646 73.163063"/>
        <path id="Path-copy-8" fill="#081116" stroke="none" d="M 444.624084 0.427856 L 432.219147 0.427856 L 418.121552 0.427856 L 405.717285 0.427856 L 405.717285 1.176987 C 412.568237 1.176987 418.121552 6.730927 418.121552 13.581879 L 418.121552 60.75843 C 418.121552 67.609375 412.568237 73.163315 405.717285 73.163315 L 405.717285 73.912445 L 418.121552 73.912445 L 432.219147 73.912445 L 444.624084 73.912445 L 478.063843 73.912445 L 478.063843 73.163315 L 478.063843 60.75843 L 477.314697 60.75843 C 477.314697 67.609375 471.760803 73.163315 464.909851 73.163315 L 444.624084 73.163315 C 437.773071 73.163315 432.219147 67.609375 432.219147 60.75843 L 432.219147 41.281403 L 446.035339 41.281403 C 452.886292 41.281403 458.440277 46.834717 458.440277 53.685669 L 459.189392 53.685669 L 459.189392 41.281403 L 459.189392 40.531662 L 459.189392 28.126724 L 458.440277 28.126724 C 458.440277 34.978333 452.886292 40.531662 446.035339 40.531662 L 432.219147 40.531662 L 432.219147 13.581879 C 432.219147 6.730927 437.773071 1.176987 444.624084 1.176987 L 464.909851 1.176987 C 471.760803 1.176987 477.314697 6.730927 477.314697 13.581879 L 478.063843 13.581879 L 478.063843 1.176987 L 478.063843 0.427856 Z"/>
        <path id="Path-copy-7" fill="#081116" stroke="none" d="M 102.435837 1.167297 C 102.373703 1.188416 107.800911 1.192123 114.184158 1.189026 C 125.226196 1.183456 134.182938 10.133972 134.182938 21.1754 L 134.182938 21.17601 C 134.182938 32.218048 125.226196 41.167984 114.184158 41.162994 C 107.800911 41.159912 102.373703 41.16362 102.435837 41.184143 Z M 88.338226 13.572189 L 88.338226 60.748711 C 88.338226 67.599693 82.784286 73.153633 75.933296 73.153633 L 75.933296 73.902763 L 88.338226 73.902763 L 102.435837 73.902763 L 114.840729 73.902763 L 114.840729 73.153633 C 107.989777 73.153633 102.435837 67.599693 102.435837 60.748711 L 102.435837 41.933273 L 109.36628 41.933273 L 125.080826 65.562843 C 126.56794 67.797844 125.811317 70.924828 123.369476 72.039848 C 121.801636 72.756073 120.058617 73.155495 118.22242 73.155495 L 118.22242 73.904617 L 130.627304 73.904617 L 130.627304 73.90152 L 130.62854 73.903999 L 138.46283 73.903999 L 138.46283 73.912697 L 150.867142 73.912697 L 150.867142 73.161064 C 146.701492 73.161064 143.014832 71.109322 140.769897 67.954384 L 140.259903 67.18972 L 138.46283 64.487564 L 123.4664 41.933273 L 134.182938 41.933273 C 134.182938 41.933273 134.263702 41.933273 134.414642 41.930176 C 143.574509 41.712128 150.867142 34.167297 150.867142 25.004959 L 150.867142 17.340897 C 150.867142 8.180359 143.574509 0.638046 134.415878 0.42189 C 134.264328 0.418137 134.182938 0.418137 134.182938 0.418137 L 102.435837 0.418137 L 88.338226 0.418137 L 75.933296 0.418137 L 75.933296 1.167297 C 82.784286 1.167297 88.338226 6.721237 88.338226 13.572189"/>
        <path id="Path-copy-6" fill="#081116" stroke="none" d="M 462.169586 86.834862 L 461.56955 86.834862 L 461.567719 86.834862 L 445.675537 86.834862 L 445.675537 87.794579 C 454.1987 87.794579 455.059631 94.56353 451.106476 102.933914 L 438.92337 121.684128 L 431.689056 132.711899 L 424.480347 121.684128 L 412.767395 103.65818 C 408.41861 94.957382 408.960266 87.794579 417.72818 87.794579 L 417.72818 86.834862 L 401.835297 86.834862 L 401.833496 86.834862 L 401.233459 86.834862 L 400.558197 86.834862 L 385.339355 86.834862 L 385.339355 87.794579 C 393.642029 87.794579 403.760345 93.113106 410.255402 102.108971 L 422.682678 121.684128 L 422.657196 121.684128 L 422.657196 164.142197 C 422.657196 172.920044 415.540985 180.036865 406.763123 180.036865 L 406.763123 180.996582 L 422.657196 180.996582 L 440.720367 180.996582 L 456.615021 180.996582 L 456.615021 180.036865 C 447.836578 180.036865 440.721008 172.920044 440.721008 164.142197 L 440.720367 164.142197 L 440.720367 121.684128 L 452.15567 103.672485 L 452.184845 103.689262 C 458.540741 93.355362 469.285797 87.794579 478.06427 87.794579 L 478.06427 86.834862 L 462.84549 86.834862 Z"/>
        <path id="Path-copy-5" fill="#081116" stroke="none" d="M 34.958115 164.139221 L 34.958115 164.139221 L 34.958115 86.83683 L 16.894934 86.83683 L 1.000255 86.83683 L 1.000255 87.796547 C 9.778722 87.796547 16.894934 94.912758 16.894934 103.690605 L 16.894934 164.139221 C 16.894934 172.917679 9.778722 180.033875 1.000255 180.033875 L 1.000255 180.993591 L 16.894934 180.993591 L 34.958115 180.993591 L 50.852177 180.993591 L 50.852177 180.033875 C 42.074329 180.033875 34.958115 172.917679 34.958115 164.139221"/>
        <path id="Path-copy-4" fill="#081116" stroke="none" d="M 50.011406 139.043716 C 41.832359 139.040009 34.878296 139.044342 34.957825 139.071045 L 34.957825 140.030762 L 75.636192 140.030762 C 75.636192 140.030762 75.728745 140.030762 75.900833 140.027054 C 87.647919 139.764923 97.013397 130.120499 97.013397 118.370316 L 97.013397 108.492363 C 97.013397 96.743423 87.647263 87.100273 75.900833 86.839996 C 75.728745 86.836899 75.636192 86.836899 75.636192 86.836899 L 34.957825 86.836899 L 34.957825 87.796623 C 34.878296 87.823334 41.832359 87.827705 50.011406 87.823952 C 64.159973 87.817734 75.636192 99.285286 75.636192 113.433853 C 75.636192 127.582382 64.159973 139.049942 50.011406 139.043716"/>
        <path id="Path-copy-3" fill="#081116" stroke="none" d="M 337.617035 86.830276 L 319.553802 86.830276 L 303.659119 86.830276 L 282.236023 86.830276 L 282.236023 87.790611 L 282.236023 103.684639 L 283.19574 103.684639 C 283.19574 94.906174 290.311859 87.790611 299.090332 87.790611 L 303.659119 87.790611 C 312.437592 87.790611 319.553802 94.906174 319.553802 103.684639 L 319.553802 164.13324 C 319.553802 172.911713 312.437592 180.027313 303.659119 180.027313 L 303.659119 180.987625 L 319.553802 180.987625 L 337.617035 180.987625 L 353.511688 180.987625 L 353.511688 180.027313 C 344.733246 180.027313 337.617035 172.911713 337.617035 164.13324 L 337.617035 164.13324 L 337.617035 103.684639 L 337.617035 103.684639 C 337.617035 94.906174 344.733246 87.790611 353.511688 87.790611 L 358.080414 87.790611 C 366.858948 87.790611 373.975098 94.906174 373.975098 103.684639 L 374.934814 103.684639 L 374.934814 87.790611 L 374.934814 86.830276 L 353.511688 86.830276 Z"/>
        <path id="Path-copy-2" fill="#081116" stroke="none" d="M 139.275543 139.070984 L 105.797836 139.070984 L 139.275543 88.72274 Z M 139.275543 86.83683 L 139.275543 86.837486 L 139.264954 86.837486 L 88.82045 162.68689 C 84.943649 168.515381 79.750626 173.416489 73.521484 176.610565 C 69.377602 178.735626 65.086494 180.033875 61.426548 180.033875 L 61.426548 180.993591 L 76.64537 180.993591 L 77.320572 180.993591 L 77.920654 180.993591 L 77.922508 180.993591 L 93.815331 180.993591 L 93.815331 180.033875 C 87.903572 180.033875 85.148643 176.646606 85.597778 171.861053 C 85.784134 169.868958 86.574898 167.981186 87.683044 166.315186 L 105.159248 140.031311 L 139.275543 140.031311 L 139.275543 164.139221 C 139.275543 172.917679 132.159332 180.033875 123.381485 180.033875 L 123.381485 180.993591 L 139.275543 180.993591 L 157.33873 180.993591 L 173.233414 180.993591 L 173.233414 180.033875 C 164.454941 180.033875 157.33873 172.917679 157.33873 164.139221 L 157.33873 103.690605 C 157.33873 94.912758 164.454941 87.796547 173.233414 87.796547 L 173.233414 86.83683 L 157.33873 86.83683 Z"/>
        <path id="Path-copy" fill="#081116" stroke="none" d="M 256.319397 113.427742 C 256.319397 127.576309 244.843185 139.043854 230.694656 139.037628 C 222.639832 139.03389 215.773331 139.038254 215.642273 139.063736 C 215.636047 139.064972 215.641037 139.059357 215.641037 139.052521 L 215.641037 87.802956 C 215.641037 87.796112 215.636047 87.790543 215.642273 87.791779 C 215.773331 87.817261 222.639832 87.821587 230.694656 87.817879 C 244.843185 87.811653 256.319397 99.279205 256.319397 113.427742 M 256.522552 86.833298 C 256.389648 86.830208 256.319397 86.830208 256.319397 86.830208 L 215.641037 86.830208 L 197.57782 86.830208 L 181.683136 86.830208 L 181.683136 87.790543 C 190.461639 87.790543 197.57782 94.906754 197.57782 103.684601 L 197.57782 164.133179 C 197.57782 172.911652 190.461639 180.027847 181.683136 180.027847 L 181.683136 180.987564 L 197.57782 180.987564 L 215.641037 180.987564 L 231.535721 180.987564 L 231.535721 180.027847 C 222.757248 180.027847 215.641037 172.911652 215.641037 164.133179 L 215.641037 140.035858 C 215.641037 140.029633 215.646027 140.024689 215.652206 140.024689 L 224.515152 140.024689 C 224.518906 140.024689 224.522614 140.02655 224.524475 140.029633 L 245.433289 171.468048 C 246.857025 173.609238 246.181824 176.498947 243.971039 177.811508 C 241.598785 179.220947 238.828308 180.029724 235.868423 180.029724 L 235.868423 180.989441 L 251.763107 180.989441 L 251.763107 180.985718 L 251.764954 180.988815 L 261.803192 180.988815 L 261.803192 181 L 277.696564 181 L 277.696564 180.03717 C 272.359436 180.03717 267.636047 177.408356 264.758728 173.365723 L 264.105896 172.386139 L 261.803192 168.923691 L 242.599487 140.042084 C 242.594528 140.034622 242.600098 140.024689 242.608795 140.024689 L 256.319397 140.024689 C 256.319397 140.024689 256.388977 140.024689 256.52066 140.022217 C 268.301331 139.795456 277.696564 130.097641 277.696564 118.31517 L 277.696564 108.533493 C 277.696564 96.752266 268.301331 87.058777 256.522552 86.833298"/>
    </g>
</svg>
